<?xml version="1.0" standalone="no"?>
<!DOCTYPE svg PUBLIC "-//W3C//DTD SVG 1.1//EN" "http://www.w3.org/Graphics/SVG/1.1/DTD/svg11.dtd" >
<svg xmlns="http://www.w3.org/2000/svg">
<metadata></metadata>
<defs>
<font id="jerseylettersregular" horiz-adv-x="931" >
<font-face units-per-em="2048" ascent="1638" descent="-410" />
<missing-glyph horiz-adv-x="1024" />
<glyph horiz-adv-x="2048" />
<glyph horiz-adv-x="2048" />
<glyph unicode="&#xd;" horiz-adv-x="1024" />
<glyph unicode=" "  horiz-adv-x="1024" />
<glyph unicode="&#x09;" horiz-adv-x="1024" />
<glyph unicode="&#xa0;" horiz-adv-x="1024" />
<glyph unicode="!" horiz-adv-x="776" d="M47 1464h580l-6 -102h108l-74 -1233h-100v-31h102v-442h-446v102h-102v443h100l-2 30h-96zM90 1423l60 -1151h364l70 1151h-494zM150 160v-361h364v361h-364zM227 1303h213l-39 -910h-139zM270 49h127v-137h-127v137zM373 1159l8 -256l12 256h-20z" />
<glyph unicode="&#x22;" horiz-adv-x="829" d="M51 909v549h281v-102h59v102h285v-102h102v-549h-284v102h-60v-102h-280v102h-103zM92 950h199v467h-199v-467zM166 1036v297h45v-297h-45zM432 950h203v467h-203v-467zM504 1036v297h49v-297h-49z" />
<glyph unicode="#" horiz-adv-x="1286" d="M45 274v703h268l33 293h625l-13 -103h115l-20 -190h86v-103h102v-702h-272l-31 -297h-627l11 102h-113l18 195h-80v102h-102zM86 315h199l-31 -297h256l33 297h32l-32 -297h256l30 297h269v283h-238l6 53h232v285h-205l33 293h-256l-29 -293h-33l33 293h-258l-33 -293 h-264v-285h236l-7 -53h-229v-283zM162 403v105h225l27 231h-252v107h262l33 297h94l-31 -297h191l32 297h95l-29 -297h211v-107h-223l-23 -231h246v-105h-258l-31 -294h-98l31 294h-191l-31 -294h-96l31 294h-215zM412 342h14l2 23h-14zM449 678h10l2 24h-10zM483 508h191 l26 231h-194zM535 444h14l2 23h-12zM543 575l12 101h82l-12 -101h-82zM571 780h15l2 25h-15zM698 342h17l2 23h-17zM735 678h15l2 24h-15zM821 444h19l2 23h-17zM858 780h14l2 25h-14z" />
<glyph unicode="$" horiz-adv-x="1148" d="M45 147v304h170l-65 63v4l-103 98v498l238 234h59v116h371v-102h102v-64l166 -159v-4l102 -99v-336h-147l63 -61v-2l103 -100v-514l-254 -250h-33v-117h-371v102h-102v88l-29 29zM86 164l246 -248h53v-117h289v117h57l230 225v482l-195 192h-317v150h147v-121h346v278 l-190 185h-78v116h-289v-116h-84l-213 -209v-465l172 -164h336v-201h-147v142h-363v-246zM211 207v86h117v-55l98 -101h217l74 74v319l-74 72h-326l-106 105v350l129 129h143v143h97v-143h125l118 -117v-98h-127v55l-30 33h-260l-78 -78v-213l63 -61h326l117 -119v-404 l-156 -155h-98v-135h-97v135h-94zM354 121l52 -51h30l-24 26h-2l-54 54h-2v-29zM354 643h41l-6 6v17h-14l-21 20v-43zM524 -6v-27h15v27h-15zM627 1100h14v45h-14v-45zM737 1012h45v30h-45v-30zM741 563l17 -16v-6h4l31 -31v53h-52z" />
<glyph unicode="%" horiz-adv-x="1542" d="M49 -246l389 592h-123l-88 103h-14l-160 186v379l160 182h266l86 -102h17l153 -183v-114l262 399h394l-68 -102h170l-383 -584h117l86 -102h16l164 -195v-375l-164 -186h-258l-88 102h-14l-160 187v112l-264 -401h-393l67 102h-170zM94 649l137 -160h230l131 160v350 l-131 156h-230l-137 -156v-350zM125 -205h295l895 1360h-295zM186 690v279l80 88h160l74 -88v-287l-74 -88h-160zM244 700l45 -51h108l45 51v246l-45 53h-106l-47 -53v-246zM295 -109l774 1176h76l-770 -1176h-80zM319 733v182h43v-182h-43zM850 -45l137 -160h221l142 160 v346l-142 168h-225l-133 -154v-360zM940 -4v283l76 81h158l81 -96v-276l-81 -88h-154zM1001 8l48 -53h98l53 53v238l-53 59h-98l-48 -51v-246zM1077 35v192h43v-192h-43z" />
<glyph unicode="&#x26;" horiz-adv-x="1458" d="M47 8v604l111 109l-45 47v440l254 256h395v-102h102v-326h305v-102h103v-41h45v-102h102v-459h-143v-676h-881l-100 102h-2zM88 25l221 -226h824v676h143v377h-148v143h-407v-143h-178v186h178v385h-338l-229 -231v-406l61 -65l-127 -125v-571zM223 115v432l164 166 l-113 112v287l166 174h187v-121h-113l-104 -106v-195l129 -133h317v156h137v-156h174v-135h-174v-664h-596zM367 27l51 -54h82l-33 35h-6l-94 101v-82zM387 150l92 -101h371v547h-356l-107 -111v-335zM418 739l102 -102h55l-51 53h-2l-104 107v-58zM522 172v299h199v-299 h-199zM666 213h14v115h-14v-115zM891 535h61v53h-61v-53zM999 637h56v53h-56v-53z" />
<glyph unicode="'" horiz-adv-x="573" d="M51 907v555h381l-24 -102h127l-129 -555h-252v102h-103zM92 948h180l109 473h-289v-473zM166 1040v293h113l-66 -293h-47z" />
<glyph unicode="(" horiz-adv-x="733" d="M47 -10v1247l229 227h302v-102h102v-408h-143v-790h41v-103h102v-407h-301l-100 102h-3zM88 6l205 -209h244v326h-144v975h144v325h-244l-205 -202v-1215zM188 63v1100l160 158h98v-100h-36l-117 -121v-979l117 -121h36v-100h-98zM332 23v-46l35 -36h39v8l-11 10h-2z" />
<glyph unicode=")" horiz-adv-x="733" d="M51 166h146v790h-43v103h-103v407h301l230 -227v-2l102 -100v-1248l-229 -233h-301v102h-103v408zM92 125v-326h244l205 209v1215l-205 202h-244v-325h146v-975h-146zM182 2h37l117 121v979l-117 121h-37v100h101l157 -158v-1099l-157 -164h-101v100zM326 1171l8 -10h4 l61 -63v51l-30 31h-43v-9z" />
<glyph unicode="*" horiz-adv-x="894" d="M39 1071l84 43l-82 45l139 238l80 -47v104h266v-102h11l77 41l70 -121l33 18l137 -235l-84 -45l84 -49l-137 -230l-88 47v-112h-267v102h-20l-59 -33l-21 33h-2v4l-49 82l-31 -16zM96 1055l99 -162l106 57v-141h184v141l115 -61l96 160l-110 65l108 60l-94 163l-115 -59 v135h-184v-135l-106 63l-97 -165l113 -62zM217 1176l41 63l100 -57v129h80v-129l105 53l39 -61l-105 -60l101 -61l-43 -70l-97 64v-138h-80v138l-100 -56l-39 68l103 55z" />
<glyph unicode="+" horiz-adv-x="1146" d="M33 199v295h342v337h297v-102h102v-235h238v-103h102v-295h-340v-340h-297v103h-102v237h-240v103h-102zM74 240h342v-340h215v340h340v213h-340v338h-215v-338h-342v-213zM141 307v72h342v342h76v-342h346v-72h-346v-342h-76v342h-342z" />
<glyph unicode="," horiz-adv-x="643" d="M51 193h447l-19 -103h121l-125 -713h-321v103h-103v713zM92 152v-631h246l111 631h-357zM205 43h100l-55 -410h-45v410z" />
<glyph unicode="-" d="M51 322v354h727v-103h103v-354h-727v103h-103zM92 362h645v273h-645v-273zM201 455v92h432v-92h-432z" />
<glyph unicode="." horiz-adv-x="630" d="M49 186h428v-102h103v-428h-428v102h-103v428zM90 145v-346h346v346h-346zM211 39h113v-131h-113v131z" />
<glyph unicode="/" horiz-adv-x="1327" d="M29 -354l735 1867h432l-41 -102h143l-733 -1868h-434l39 103h-141zM90 -313h344l701 1786h-342zM256 -213l627 1587h90l-623 -1587h-94z" />
<glyph unicode="0" horiz-adv-x="1243" d="M49 0v1223l246 241h530l267 -264v-2l102 -100v-1188l-256 -254h-541l-245 242v2zM90 16l221 -217h508l232 230v1155l-242 239h-498l-221 -217v-1190zM231 104v1014l168 168h330l176 -178v-981l-190 -190h-316zM367 180l104 -104h193l106 104v850l-115 117h-188l-100 -96 v-871zM375 18l41 -41h96l-137 138v-97zM506 213v797h123v-797h-123zM715 1143l57 -58h2l90 -92v99l-51 51h-98z" />
<glyph unicode="1" horiz-adv-x="913" d="M51 -242v500h107v600h-4v103h-103v350l152 153h454v-102h103v-1104h6v-102h102v-500h-714v102h-103zM92 -201h633v418h-109v1206h-397l-127 -129v-293h107v-784h-107v-418zM231 -63v141h109v1069h-109v61l78 76h170v-1206h113v-141h-361zM381 1085h57v56h-10l-47 -45v-11 zM483 -23h58v60h-58v-60z" />
<glyph unicode="2" horiz-adv-x="1253" d="M51 229l365 408h-262v102h-103v467l256 258h524l101 -102h2l270 -272v-562l-246 -272h134v-102h102v-498h-1040v102h-103v471zM92 -201h959v416h-377l387 430v531l-246 247h-491l-232 -233v-410h422v230h121v-191l-543 -604v-416zM233 -68v224l545 606v272l-108 115h-191 l-104 -100v-131h-137v190l170 178h317l190 -196v-381l-579 -635h579v-142h-682zM377 -27h8l53 60h-61v-60zM733 1143l53 -56h5l83 -88v74l-67 70h-74z" />
<glyph unicode="3" horiz-adv-x="1220" d="M47 10v436h385v250h-282v103h-103v393l270 274l471 -2l101 -102h2l280 -285v-506l-51 -51l51 -53v-563l-247 -248h-525zM88 27l225 -228h492l223 224v530l-67 70l67 67v473l-256 260l-438 2l-246 -249v-336h416v164h125v-218h-156v-327h156v-244h-125v191h-416v-379z M231 111v161h136v-92l102 -98h195l102 106v267l-111 106h-69v131h69l111 115v235l-104 107h-205l-90 -92v-76h-136v133l166 172l322 -2l170 -170v-391l-103 -100l103 -105v-407l-170 -174h-322zM375 23l43 -46h96l-86 84v2l-53 52v-92zM725 1141l53 -54h2l68 -69v80l-43 43 h-80zM729 547l78 -76v-4l41 -39v74l-62 61l-12 -14h-45v-2z" />
<glyph unicode="4" horiz-adv-x="1419" d="M35 236v466l600 762h489v-102h103v-633h43v-102h102v-494h-47v-477h-707v102h-102v375h-379v103h-102zM76 276h579v-59h-98v-418h625v418h-99v59h146v412h-146v735h-428l-579 -735v-412zM211 420v215l516 651h211v-729h156v-137h-156v-346h106v-144h-352v144h109v346 h-590zM315 557h486v596zM354 461h13l45 55h-58v-55zM575 688l95 117v-117h-95zM842 358h55v56h-55v-56zM842 1040l55 70v33h-49l-6 -10v-93zM944 -29h55v62h-55v-62zM944 461h55v55h-55v-55z" />
<glyph unicode="5" horiz-adv-x="1226" d="M51 6v494h4v964h1018v-102h103v-492h-302l302 -301v-665l-248 -248h-525zM92 23l225 -224h492l223 224v632l-223 224h-305v135h528v409h-936v-886h533v-334h-129v256h-408v-436zM219 111v200h146v-127l104 -102h209l102 98v363l-116 114h-437v637h670v-143h-537v-389h377 l174 -174v-477l-176 -174h-342zM362 25l48 -48h104l-88 89v2l-64 61v-104zM371 698h51v23h-51v-23zM760 618l61 -59v-2l49 -49v63l-47 47h-63z" />
<glyph unicode="6" horiz-adv-x="1247" d="M49 20v1188l252 254h539l100 -102h2l252 -254v-383h-201l205 -207v-600l-260 -262h-524zM90 37l238 -240h491l236 238v567l-234 236h-309v170h121v-142h418v326l-228 229h-506l-227 -229v-1155zM236 113v1007l159 164h350l164 -162v-114h-135v53l-86 84h-229l-86 -84 v-363h370l166 -170v-415l-174 -179h-321zM369 197l120 -123h162l123 125v233l-127 127h-278v-362zM379 27l51 -52h100l-55 58h-2l-94 94v-100zM379 600h55v57h-55v-57zM512 213v209h121v-209h-121zM709 555l159 -160v117l-43 43h-116zM750 1141l65 -64v-2l27 -26h26v55 l-37 37h-81z" />
<glyph unicode="7" horiz-adv-x="1404" d="M49 -242l502 1000h-373v102h-102v602l1188 2v-102h102v-471l-612 -1235h-602l51 102h-154zM117 -201h508l598 1205v419l-1106 -2v-520h444v109h164zM258 1038v248h823v-227l-565 -1127h-170l612 1205h-563v-99h-137zM973 1075h67v68h-32z" />
<glyph unicode="8" horiz-adv-x="1312" d="M47 10v510l109 109l-41 41v547l247 247h486l350 -350v-545l-43 -43l8 -6v-2l103 -100v-510l-252 -252h-613zM88 27l227 -228h580l227 228v477l-127 125l60 59v512l-224 223h-452l-223 -223v-514l57 -57l-125 -125v-477zM225 100v359l174 174l-104 104v400l149 149h320 l149 -149v-400l-104 -104l174 -172v-361l-164 -163h-430zM362 143l95 -94h297l92 94v289l-90 90h-303l-91 -90v-289zM369 14l37 -37h65l-102 103v-66zM416 758l80 -80h217l80 80v315l-93 92h-192l-92 -92v-315zM438 651l88 -88h27l-115 115v-27zM485 180v221h230v-221h-230z M528 795v243h144v-243h-144zM629 221h45v37h-45v-37zM780 1143l92 -92v69l-22 23h-70zM801 535l141 -142v49l-88 88l-14 13l-9 -8h-30z" />
<glyph unicode="9" horiz-adv-x="1247" d="M49 602v600l260 262h525l100 -102h2l262 -264v-1188l-252 -254h-538l-355 356v383h201zM90 618l234 -235h309v-170h-121v141h-418v-325l228 -230h505l228 230v1155l-238 239h-491l-236 -237v-568zM236 98v115h135v-53l86 -84h229l86 84v362h-371l-165 170v416l174 178 h321l178 -178v-1008l-159 -163h-351zM371 788l127 -126h278v362l-121 123h-161l-123 -125v-234zM379 12l37 -35h80l-64 64v2l-29 27h-24v-58zM379 606l41 -43h119l-160 160v-117zM512 799v209h121v-209h-121zM715 1143l57 -58h2l94 -96v103l-51 51h-102zM813 461h55v57h-55 v-57z" />
<glyph unicode=":" horiz-adv-x="634" d="M51 186h428v-102h103v-428h-428v102h-103v428zM51 555v428h428v-102h103v-428h-428v102h-103zM92 145v-346h346v346h-346zM92 596h346v346h-346v-346zM213 39h113v-131h-113v131zM213 707v129h113v-129h-113z" />
<glyph unicode=";" horiz-adv-x="645" d="M51 193h447l-19 -103h121l-125 -713h-321v103h-103v713zM57 555v428h428v-102h103v-428h-428v102h-103zM92 152v-631h246l111 631h-357zM98 596h346v346h-346v-346zM205 43h100l-55 -410h-45v410zM219 707v129h113v-129h-113z" />
<glyph unicode="&#x3c;" horiz-adv-x="1079" d="M25 186v402l899 491v-159l102 57v-481l-352 -189l250 -135v-47l102 -55v-484l-899 498v45zM66 211l817 -451v385l-441 242l441 236v387l-817 -449v-350zM156 279v217l643 358v-156l-529 -297v-41l523 -282v-154zM299 244l453 -252v12l-420 227v48l-33 16v-51z" />
<glyph unicode="=" horiz-adv-x="933" d="M51 88v354h103v17h-103v354h727v-102h103v-355h-103v-16h103v-354h-727v102h-103zM92 129h645v272h-645v-272zM92 500h645v272h-645v-272zM201 221v92h432v-92h-432zM201 592v90h432v-90h-432z" />
<glyph unicode="&#x3e;" horiz-adv-x="1081" d="M53 172l353 186l-250 138v47l-103 55v483l901 -499v-47l103 -56v-401l-901 -490v158l-103 -55v481zM94 147v-387l819 447v350l-819 453v-385l443 -242zM180 72l529 295v41l-523 284v154l637 -354v-218l-643 -358v156zM330 662l420 -228v-47l32 -18v53l-452 252v-12z" />
<glyph unicode="?" horiz-adv-x="1118" d="M45 930v323l213 211h487l232 -229v-2l102 -100v-623l-182 -180h-182v-201h-107v-31h103v-442h-451v102h-102v443h112v30h-102v416l178 180h-199v103h-102zM86 971h348v116h141v-264h-176l-190 -192v-359h362v201h207l158 156v590l-207 204h-455l-188 -186v-266zM199 160 v-361h368v361h-368zM209 1092v108l104 103h371l131 -129v-478l-92 -90h-209l-68 -65v-148h-114v197l123 123h198l49 49v334l-86 86h-247l-37 -39v-51h-123zM326 49h120v-141h-120v141zM696 1159l78 -78v74l-4 4h-74z" />
<glyph unicode="@" horiz-adv-x="1699" d="M43 516v25q0 317 225.5 544.5t536.5 237.5q168 4 323 -55q178 -70 283 -207q234 -180 234 -479v-29q0 -193 -105 -363h12q-39 -66 -69 -102h172q-127 -213 -326 -330q-184 -106 -387 -106q-184 0 -348 74q-170 76 -283 213q-268 223 -268 577zM84 516q8 -330 242 -532 q215 -188 514 -189q193 0 358 88q178 92 283 267h-135q-199 -258 -521 -259q-252 0 -430 168q-197 182 -202 490q-6 246 181 433t478 194q250 6 412 -175q150 -164 137 -362q-14 -227 -133 -354q-94 -100 -211 -107q-43 4 -43 41q0 10 4 23l203 690h-127l-17 -80 q-18 61 -94 96q-68 29 -154 29q-207 0 -340 -227q-113 -190 -112 -402q0 -66 14 -106q53 -156 244 -162q127 6 231 84q96 -88 170 -88q16 0 33 4q176 2 310 194.5t122 409.5q-16 315 -250 475q-188 129 -444 123q-301 -8 -516 -232.5t-207 -533.5zM336 449q0 -6 2 -21v-22 q23 260 170 442q-172 -168 -172 -399zM426 117q16 -31 43 -64q20 -14 63 -43q-31 27 -59 72q-25 14 -47 35zM524 397q0 98 47 211q43 106 84 137q98 111 199 111q127 1 127 -151q0 -147 -98 -312q-104 -176 -217 -176q-23 0 -43 8q-98 35 -99 172zM668 295q0 -25 2 -37 q98 2 186 162q84 152 84 285v6q-78 -10 -156 -99q-37 -27 -75 -123q-41 -104 -41 -194zM752 -63q48 -5 73 -5q96 0 195 35q-37 25 -55 41q-96 -59 -213 -71zM838 1018q135 -5 217 -68l4 23h143q-117 61 -246 59q-37 0 -118 -14zM1204 281q156 131 156 360v25q0 49 -12 100z M1245 870h62q-12 20 -41 62l-2 2z" />
<glyph unicode="A" horiz-adv-x="1503" d="M41 -242v500h125l332 1206h409l27 -102h76l301 -1104h51v-102h102v-500h-628v102h-62v-102h-631v102h-102zM82 -201h549v424h-78l22 66h265l16 -66h-82v-424h547v418h-115l-329 1206h-349l-331 -1206h-115v-418zM207 -63v143h74l350 1206h143l350 -1206h70v-143h-299v143 h104l-88 330h-417l-88 -330h100v-143h-299zM426 -23h39v62h-23zM528 514h351l-177 631zM563 451h37l6 22h-37zM670 657l30 172l35 -172h-65zM754 1108l14 -51l14 53l-10 33h-8zM963 371l6 -23h35l-7 23h-34zM1126 39l17 -62h10v62h-27z" />
<glyph unicode="B" horiz-adv-x="1341" d="M49 -242v500h105v602h-2v103h-103v501h883l360 -360v-522l-61 -62l61 -61v-551l-258 -252h-882v102h-103zM90 -201h825l234 228v518l-76 78l76 77v490l-234 233h-825v-419h105v-787h-105v-418zM229 -63v139h103v1071h-103v139h600l179 -176v-373l-115 -114l115 -115v-381 l-191 -190h-588zM373 1085h57v58h-57v-58zM471 76h295l104 104v273l-94 98h-305v-475zM471 674h305l94 96v260l-116 117h-283v-473zM475 -23h57v58h-57v-58zM475 592h57v41h-57v-41zM606 213v201h125v-201h-125zM606 795v215h125v-215h-125zM815 1143l152 -152v101l-52 51 h-100zM852 530l39 -41h4l72 -73v76l-56 55l-16 -17h-43z" />
<glyph unicode="C" horiz-adv-x="1241" d="M49 8v1215l246 241h543l354 -354v-473h-504v102h-41v-250h443v-102h102v-477l-252 -254h-539zM90 25l225 -226h506l228 230v420h-422v-236h-123v797h123v-230h422v416l-228 227h-510l-221 -217v-1181zM229 104v1012l168 170h320l186 -188v-180h-135v110l-119 119h-182 l-102 -100v-867l106 -104h191l106 104v127h135v-178l-190 -192h-316zM373 18l41 -41h96l-84 84v2l-53 52v-97zM711 1143l151 -152v90l-61 62h-90z" />
<glyph unicode="D" horiz-adv-x="1343" d="M49 -242v500h107v602h-4v103h-103v501h836l307 -305v-2l102 -100v-1153l-254 -248h-888v102h-103zM90 -201h832l229 224v1120l-283 280h-778v-419h107v-787h-107v-418zM231 -63v139h113v1073h-113v137h566l211 -207v-950l-191 -192h-586zM385 1087h51v56h-51v-56zM477 76 h281l110 104v862l-110 107h-281v-1073zM487 -23h52v58h-52v-58zM616 215v789h109v-789h-109zM821 1143l88 -84v-4l58 -56v62l-84 82h-62z" />
<glyph unicode="E" horiz-adv-x="1320" d="M53 -242v500h109v602h-6v103h-103v501h1112v-102h103v-641h-209v-318h106v-102h103v-645h-1112v102h-103zM94 -201h1030v563h-419v-149h-87v211h297v375h-297v205h87v-140h419v559h-1030v-419h109v-787h-109v-418zM233 -63v139h113v1071h-113v139h754v-282h-145v143h-361 v-471h297v-123h-297v-477h361v143h145v-282h-754zM387 1085h53v58h-53v-58zM489 -23h54v58h-54v-58zM489 594h54v41h-54v-41zM883 1085h63v58h-63v-58z" />
<glyph unicode="F" horiz-adv-x="1314" d="M53 -242v500h107v604h-4v103h-103v499h1121v-102h102v-641h-223v-436h-289v-27h4v-102h102v-500h-714v102h-103zM94 -201h633v418h-106v211h288v371h-288v207h81v-142h431v559h-1039v-417h107v-789h-107v-418zM233 -63v141h111v1069h-108v137h757v-280h-153v143h-359 v-471h291v-123h-291v-475h117v-141h-365zM385 1085h55v56h-55v-56zM487 -23h56v60h-56v-60zM487 594h56v41h-56v-41zM881 1085h71v56h-71v-56z" />
<glyph unicode="G" horiz-adv-x="1245" d="M49 6v1217l248 241h547l248 -243v-2l102 -101v-1462h-791l-251 248v2zM90 23l227 -224h734v895h-469v-342h47v-139h-123v797h123v-236h422v430l-224 219h-514l-223 -217v-1183zM231 104v1010l168 172h326l180 -182v-186h-135v108l-119 121h-182l-102 -98v-863l110 -110 h293v395h-68v84h203v-618h-508zM375 18l39 -41h104l-143 144v-103zM711 1143l57 -58h2l94 -96v98l-55 56h-98zM846 410h18v2h-18v-2z" />
<glyph unicode="H" horiz-adv-x="1589" d="M53 -242v500h107v604h-4v103h-103v499h1381v-102h102v-500h-106v-604h4v-102h102v-500h-1380v102h-103zM94 -201h633v418h-106v176h245v-176h-106v-418h633v418h-107v789h107v417h-633v-417h106v-193h-245v193h106v417h-633v-417h107v-789h-107v-418zM231 -63v141h111 v1069h-111v139h367v-139h-117v-473h527v473h-111v139h365v-139h-117v-1069h117v-141h-365v141h111v459h-527v-459h117v-141h-367zM383 1085h57v58h-57v-58zM485 -23h58v60h-58v-60zM485 578h58v55h-58v-55zM764 854h61v8h-61v-8zM1049 475h55v55h-55v-55zM1049 1085h55v58 h-55v-58zM1151 -23h55v60h-55v-60z" />
<glyph unicode="I" horiz-adv-x="923" d="M53 -242v500h107v604h-4v103h-103v499h715v-102h102v-500h-106v-604h4v-102h102v-500h-714v102h-103zM94 -201h633v418h-106v789h106v417h-633v-417h107v-789h-107v-418zM233 -63v141h109v1069h-109v139h365v-139h-117v-1069h117v-141h-365zM383 1085h57v58h-57v-58z M485 -23h58v60h-58v-60z" />
<glyph unicode="J" horiz-adv-x="1323" d="M37 2v483h502v-102h22v582h-102v499h712v-102h103v-500h-109v-948l-250 -258h-526l-250 244v2zM78 18l225 -219h494l225 234v973h108v417h-630v-417h102v-789h-104v227h-420v-426zM223 113v194h135v-123l105 -106h174l106 102v967h-108v139h364v-139h-116v-1020 l-185 -190h-297zM367 27l51 -50h88l-57 60h-3l-79 80v-90zM784 1085h58v58h-58v-58z" />
<glyph unicode="K" horiz-adv-x="1589" d="M55 -242v500h109v604h-6v103h-103v499h1377v-102h102v-500h-207l-160 -207l127 -397h138v-102h102v-500h-1376v102h-103zM96 -201h629v418h-104v47l159 201l88 -248h-110v-418h633v418h-195l-176 549l184 240h187v417h-633v-417h14l-151 -197v197h106v417h-631v-417h109 v-789h-109v-418zM236 -63v141h106v1069h-106v139h366v-139h-121v-692l547 692h-125v139h346v-139h-88l-270 -340l254 -729h108v-135l-368 -2v137h139l-215 627l-328 -412v-215h121v-141h-366zM383 1085h57v58h-57v-58zM485 -23h58v60h-58v-60zM485 362l58 72v31l-58 -72v-31 zM870 649l9 -22l20 26l-8 23zM1047 1085h12l45 58h-29l-28 -39v-19zM1149 37l18 -55h33l-18 55h-33z" />
<glyph unicode="L" horiz-adv-x="1439" d="M55 -242v500h109v604h-6v103h-103v499h717v-102h102v-500h-110v-604h31v231h503v-102h103v-731h-1243v102h-103zM96 -201h1161v650h-421v-232h-215v789h110v417h-635v-417h109v-789h-109v-418zM236 -63v141h114v1069h-112v139h364v-139h-117v-1069h486v229h141v-370h-876 zM391 1085h53v58h-53v-58zM494 -23h53v60h-53v-60z" />
<glyph unicode="M" horiz-adv-x="1755" d="M55 -242v500h109v600h-6v103h-103v503h596l54 -102h49l94 -182l149 284h600v-102h103v-504h-109v-600h6v-102h103v-500h-719v102h-102v387h-2v-489h-719v102h-103zM96 -201h637v418h-108v283l94 -211h209l100 186v-258h-108v-418h636v418h-108v784h108v422h-534 l-199 -381l-196 381h-531v-422h109v-784h-109v-418zM236 -63v141h112v1069h-112v139h303l284 -559l285 559h313v-139h-114v-1069h114v-141h-358v141h106v1009l-311 -624h-70l-307 608v-993h117v-141h-362zM389 1085h51v5l70 16l57 -113l45 11l236 -469l39 75l-39 76l-25 -49 l-258 506h-176v-58zM492 -23h51v60h-51v-60zM774 156h14l-14 34v-34zM1210 954l33 66l23 -6v129h-31l-25 -51v-138zM1313 -23h55v60h-55v-60z" />
<glyph unicode="N" horiz-adv-x="1714" d="M55 -242v500h105v604h-2v103h-103v499h602l50 -102h53l90 -188v290h711v-102h102v-500h-107v-1206h-507l-52 102h-51l-72 146v-248h-716v102h-103zM96 -201h635v418h-110v297l352 -715h440v1207h107v417h-629v-417h102v-332l-362 749h-535v-417h105v-789h-105v-418z M236 -66v144h108v1069h-108v139h309l588 -1153v1014h-109v139h367v-139h-119v-1215h-215l-574 1123v-977h115v-144h-362zM385 1085h102v-2l25 7l57 -113l45 10l519 -1014h98v29l-25 -6l-57 113l-45 -11l-533 1045h-186v-58zM487 -25h58v62h-58v-62zM950 965l2 -2v2h-2z M1174 1085h57v58h-57v-58z" />
<glyph unicode="O" horiz-adv-x="1247" d="M51 0v1223l246 241h530l267 -264v-2l102 -100v-1188l-256 -254h-541l-245 242v2zM92 16l221 -217h508l232 230v1155l-242 239h-498l-221 -217v-1190zM233 104v1014l168 168h330l176 -178v-981l-190 -190h-316zM369 180l104 -104h193l106 104v850l-115 117h-188l-100 -96 v-871zM377 18l41 -41h96l-137 138v-97zM508 213v797h123v-797h-123zM717 1143l57 -58h2l90 -92v99l-51 51h-98z" />
<glyph unicode="P" horiz-adv-x="1314" d="M55 -242v498h107v604h-4v103h-103v501h834l282 -280v-2l103 -101v-553l-301 -297h-199v-77h103v-498h-719v102h-103zM96 -201h637v416h-112v160h233l276 272v520l-258 256h-776v-419h107v-789h-107v-416zM236 -66v144h112v1069h-112v135h565l190 -192v-367l-190 -191 h-318v-454h117v-144h-364zM389 1085h53v54h-53v-54zM483 674h271l100 100v264l-106 109h-265v-473zM492 -25h53v62h-53v-62zM492 573h53v60h-53v-60zM621 795v209h94v-209h-94zM811 1139l53 -54h2l84 -86v74l-65 66h-74z" />
<glyph unicode="Q" horiz-adv-x="1406" d="M49 0v1223l246 241h530l267 -264v-2l102 -100v-1084l70 -53l-13 -14l115 -88l-281 -330l-184 127h-504l-245 242v2zM90 16l221 -217h498l166 -114l229 270l-153 121v1108l-242 239h-498l-221 -217v-1190zM231 104v1014l168 168h330l176 -178v-977l-55 -55l188 -146 l-77 -88l-193 142l-49 -47h-320zM367 180l104 -104h193l106 104v850l-115 117h-188l-100 -96v-871zM375 18l41 -41h96l-137 138v-97zM506 213v797h123v-797h-123zM715 1143l57 -58h2l90 -92v99l-51 51h-98zM836 -16l118 -86l13 12l-76 59l12 13l-39 30z" />
<glyph unicode="R" horiz-adv-x="1589" d="M57 -242v496h107v604h-4v103h-103v503h893l101 -102h2l250 -254v-549l-101 -98l111 -205h129v-102h102v-498h-1384v102h-103zM98 -201h639v416h-112v160h114l86 -160h-47v-416h623v416h-160l-190 356l108 107v516l-225 229h-836v-422h107v-788h-107v-414zM240 -63v141 h110v1069h-110v135h614l166 -164v-389l-127 -133l285 -518h86v-141h-349v141h123l-252 454h-301v-454h119v-141h-364zM391 1085h53v54h-53v-54zM485 674h301l95 98v287l-90 88h-306v-473zM494 -23h53v60h-53v-60zM494 573h53v60h-53v-60zM625 795v209h114v-209h-114z M831 530l33 -59h47l-30 59h-50zM856 1139l66 -64v-2l57 -57v84l-39 39h-84zM1153 37l33 -60h37v13l-27 47h-43z" />
<glyph unicode="S" horiz-adv-x="1310" d="M51 49v373h199l-195 196v572l283 274h549l254 -245v-5l102 -98v-373h-186l100 -98v-2l103 -100v-602l-293 -285h-518zM92 66l270 -267h486l268 260v570l-233 229h-361v168h164v-139h414v315l-230 221h-516l-258 -249v-539l185 -186h405v-238h-164v170h-430v-315zM238 119 v114h137v-79l90 -95h278l86 82v385l-86 84h-381l-124 121v395l155 160h418l139 -137v-115h-141v49l-53 52h-291l-90 -88v-250l63 -62h381l154 -153v-469l-182 -181h-365zM381 33l61 -60h54l-45 45h-2l-68 70v-55zM381 651h82l-27 27v16h-14l-41 39v-82zM805 1143l45 -43v-25 h59v55l-12 13h-92zM819 592l51 -49v-2l62 -62v86l-27 27h-86z" />
<glyph unicode="T" horiz-adv-x="1665" d="M45 866v598h1473v-102h102v-598h-485v-506h4v-102h102v-500h-715v102h-102v500h104v506h-381v102h-102zM86 907h430v99h53v-789h-104v-418h633v418h-107v789h58v-99h428v516h-1391v-516zM229 1042v242h1110v-242h-139v105h-350v-1069h117v-141h-365v141h113v1069h-350 v-105h-136zM756 1085h53v56h-53v-56zM858 -23h53v60h-53v-60zM1241 1085h57v56h-57v-56z" />
<glyph unicode="U" horiz-adv-x="1509" d="M49 965v499h1307v-102h102v-500h-102v-960l-250 -246h-598l-250 246v2l-102 100v858h-4v103h-103zM90 1006h107v-986l225 -221h565l225 221v986h103v417h-594v-417h67v-791h-174v791h66v417h-590v-417zM227 1147v139h332v-139h-84v-965l105 -100h251l97 100v965h-86v139 h334v-139h-111v-1036l-176 -174h-375l-174 174v1036h-113zM381 1085h53v58h-53v-58zM483 25l47 -48h95l-88 86v3l-54 53v-94zM985 1085h39v58h-39v-58z" />
<glyph unicode="V" horiz-adv-x="1497" d="M41 944v520h1311v-102h102v-520h-125l-354 -1186h-352l-31 102h-72l-323 1084h-54v102h-102zM82 985h115l354 -1186h291l354 1186h115v438h-596v-438h65l-84 -317l-86 317h64v438h-592v-438zM223 1143v143h312v-143h-103l264 -848l262 848h-100v143h311v-143h-71 l-357 -1209h-90l-356 1209h-72zM367 1081h41l-19 62h-22v-62zM698 164l33 -115l33 113l-33 108zM1001 1081h35l19 62h-54v-62z" />
<glyph unicode="W" horiz-adv-x="2160" d="M45 965v499h684v-102h102v-164l87 266h217l32 -102h70l88 -270v372h686v-102h103v-500h-123l-398 -1206h-299l-32 102h-70l-96 301l-135 -403h-295l-35 102h-68l-362 1104h-54v103h-102zM86 1006h111l395 -1207h237l201 600l193 -600h239l398 1207h110v417h-604v-417h64 l-82 -328l-242 745h-160l-239 -743l-95 326h76v417h-602v-417zM205 1147v139h338v-139h-123l287 -866l307 950h37l295 -950l292 866h-125v139h338v-139h-90l-401 -1217h-37l-291 926l-305 -926h-35l-399 1217h-88zM348 1104l6 -19h43l-20 58h-29v-39zM719 188l24 -77l23 67 l-27 76zM1071 860l27 -84l26 78l-26 84zM1356 182l20 -67l25 71l-21 70zM1366 965l6 -21l4 21h-10zM1661 1085h37l18 58h-37z" />
<glyph unicode="X" horiz-adv-x="1679" d="M53 -242v498h219l256 356l-180 250h-192v103h-103v499h1471v-102h102v-500h-225l-254 -352l184 -254h193v-102h102v-498h-1470v102h-103zM94 -201h672v418h-53l75 119l74 -119h-53v-418h674v416h-199l-291 397l285 394h205v417h-674v-417h47l-68 -115l-69 115h47v417 h-672v-417h203l283 -394l-285 -397h-201v-416zM229 -63v141h103l383 530l-391 539h-95v139h367v-139h-125l317 -440l316 440h-127v139h364v-139h-92l-385 -537l383 -532h94v-141h-364v141h123l-312 434l-309 -434h117v-141h-367zM375 1143l43 -58h28l422 -579l-12 -19 l21 -28l14 20l360 -502h47l-43 60h-28l-414 573l10 17l-20 28l-15 -18l-364 506h-49zM485 -23h47l23 31v29h-27zM1120 1085h35l41 58h-45l-31 -43v-15z" />
<glyph unicode="Y" horiz-adv-x="1558" d="M45 961v503h1364v-102h102v-504h-159l-269 -434v-248h103v-520h-715v102h-102v521h106v247l-205 332h-123v103h-102zM86 1001h143l287 -464v-299h-106v-439h632v439h-102v299l287 464h141v422h-616v-422h26l-51 -116l-51 116h26v422h-616v-422zM223 1147v139h320v-139 h-115l299 -490l299 490h-113v139h314v-139h-58l-368 -582v-487h100v-141h-346v141h98v487l-366 582h-64zM367 1096l6 -11h39l200 -319l-229 377h-16v-47zM729 582l31 -50v46l4 6l-16 28zM797 -23h63v60h-63v-60zM1057 1085h24l37 58h-49l-12 -23v-35z" />
<glyph unicode="Z" horiz-adv-x="1593" d="M59 229l441 490h-338v102h-103v643h1373v-102h102v-475l-385 -428h283v-103h102v-700h-1372v102h-103v471zM100 -201h1291v619h-437v-203h-272l709 789v419h-1291v-561h439v142h272l-711 -789v-416zM240 -63v223l886 977h-745v-138h-141v287h1009v-227l-897 -981h762v203 h139v-344h-1013zM383 -23h18l54 60h-72v-60zM1124 1075h84v68h-22z" />
<glyph unicode="[" horiz-adv-x="813" d="M59 -459v1870h592v-102h103v-439h-158v-893h55v-102h103v-436h-592v102h-103zM100 -418h510v355h-157v1077h157v356h-510v-1788zM201 -297v1552h305v-122h-160v-1309h160v-121h-305zM344 -217v-39h64v39h-64z" />
<glyph unicode="\" horiz-adv-x="1329" d="M29 1513h432l39 -102h63l735 -1868h-434l-41 103h-61zM90 1473l701 -1786h344l-703 1786h-342zM252 1374h88l629 -1587h-95z" />
<glyph unicode="]" horiz-adv-x="811" d="M57 -23h162v897h-59v103h-103v434h592v-102h103v-1870h-592v102h-103v436zM98 -63v-355h510v1788h-510v-352h162v-1081h-162zM203 -176h159v1309h-159v120h305v-1554h-305v125zM403 1071h64v39h-64v-39z" />
<glyph unicode="^" horiz-adv-x="1345" d="M43 164l399 989h363l41 -102h61l398 -990h-385l-43 103h-60l-123 295l-157 -398h-392l41 103h-143zM104 205h302l215 540l223 -540h297l-365 907h-305zM227 285l305 745h185l301 -745h-117l-276 688l-281 -688h-117z" />
<glyph unicode="_" horiz-adv-x="1236" d="M53 51h1020v-102h103v-355h-1020v103h-103v354zM94 10v-272h938v272h-938zM203 -80h725v-90h-725v90z" />
<glyph unicode="`" horiz-adv-x="634" d="M53 1898h353l16 -102h86l72 -446h-265l-36 102h-66zM113 1858l129 -365h186l-57 365h-258zM229 1765h80l29 -180h-49z" />
<glyph unicode="a" horiz-adv-x="1325" d="M45 195h107l282 1026h357l26 -103h76l252 -923h35v-103h102v-436h-547v102h-41v-102h-547v102h-102v437zM86 154v-355h465v361h-66l19 55h225l14 -55h-69v-361h465v355h-99l-280 1026h-295l-283 -1026h-96zM190 37h64l297 1026h123l297 -1026h59v-121h-254v121h88 l-73 280h-357l-74 -280h84v-121h-254v121zM465 406h297l-150 536zM520 358h21l2 7h-21zM584 528l26 146l31 -146h-57zM672 879l6 -23l6 23l-6 20zM846 262l2 -6h16l-2 6h-16z" />
<glyph unicode="b" horiz-adv-x="1198" d="M59 195h88v587h-88v439h758l326 -326v-451l-47 -51l47 -47v-473l-223 -217h-758v102h-103v437zM100 154v-355h701l198 193v440l-63 66l63 67v416l-198 199h-701v-357h88v-669h-88zM217 33h88v911h-88v119h512l150 -150v-317l-97 -98l97 -97v-323l-162 -162h-500v117z M360 883h23v37h-23v-37zM424 33h250l90 90v231l-82 84h-258v-405zM424 543h258l82 82v221l-100 98h-240v-401zM449 -8v-35h36v35h-36zM449 479h36v23h-36v-23zM539 150v172h106v-172h-106zM539 645v182h106v-182h-106zM745 920l60 -58v-2l33 -33v70l-23 23h-70zM776 399 l23 -22h2l37 -39v47l-27 25l-10 -11h-25z" />
<glyph unicode="c" horiz-adv-x="1107" d="M55 -27v1039l213 209h467l101 -103h2l217 -219v-410h-441v103h-22v-201h360v-102h103v-414l-217 -219h-463zM96 -10l193 -191h430l192 195v356h-358v-200h-104v677h104v-194h358v352l-192 195h-434l-189 -185v-1005zM215 57v861l143 145h271l159 -160v-153h-114v94 l-103 100h-153l-88 -86v-735l90 -90h162l92 90v108h114v-151l-161 -164h-269zM358 -27l17 -16h63l-80 80v-64zM653 920l62 -60v-2l33 -33v62l-33 33h-62z" />
<glyph unicode="d" horiz-adv-x="1200" d="M59 195h91v587h-91v439h719l367 -367v-985l-219 -213h-764v102h-103v437zM100 154v-355h707l194 189v952l-239 240h-662v-357h90v-669h-90zM219 33h96v913h-96v117h481l181 -176v-807l-162 -164h-500v117zM362 885h25v35h-25v-35zM428 33h240l94 90v733l-94 90h-240v-913 zM459 -8v-35h30v35h-30zM547 152v671h92v-671h-92zM754 920l49 -48v-4l37 -34v32l-54 54h-32z" />
<glyph unicode="e" horiz-adv-x="1177" d="M59 195h93v587h-93v439h957v-103h102v-557h-176v-244h74v-102h102v-559h-956v102h-103v437zM100 154v-355h875v477h-357v-126h-73v180h254v319h-254v174h73v-118h357v475h-875v-357h93v-669h-93zM219 33h94v911h-94v119h639v-240h-123v121h-307v-399h254v-105h-254v-407 h307v123h123v-240h-639v117zM362 883h25v37h-25v-37zM457 -8v-35h32v35h-32zM457 481h32v23h-32v-23zM776 883h41v37h-41v-37z" />
<glyph unicode="f" horiz-adv-x="1171" d="M59 195h91v587h-91v439h965v-103h102v-557h-190v-371h-246v-98h90v-436h-618v102h-103v437zM100 154v-355h537v355h-90v180h246v315h-246v174h69v-118h367v475h-883v-357h90v-669h-90zM217 35h94v909h-92v117h645v-238h-131v121h-305v-399h248v-105h-248v-405h100v-119 h-311v119zM362 883h25v35h-25v-35zM455 -6v-37h32v37h-32zM455 481h34v23h-34v-23zM774 883h49v35h-49v-35z" />
<glyph unicode="g" horiz-adv-x="1114" d="M55 -29v1041l215 209h469l215 -211v-2l103 -101v-1251h-680l-219 213v2zM96 -12l195 -189h622v760h-399v-291h41v-118h-104v677h104v-200h358v366l-190 187h-436l-191 -185v-1007zM217 57v858l143 148h277l154 -156v-157h-115v92l-103 102h-153l-88 -84v-733l94 -94h250 v338h-58v69h173v-524h-433zM360 -29l15 -14h69l-84 84v-70zM655 920l95 -95v66l-29 29h-66z" />
<glyph unicode="h" horiz-adv-x="1406" d="M59 195h91v587h-91v439h1186v-103h103v-438h-93v-588h93v-436h-1186v102h-103v437zM100 154v-355h537v355h-90v149h209v-149h-90v-355h538v355h-92v669h92v357h-538v-357h90v-164h-209v164h90v357h-537v-357h90v-669h-90zM217 35h94v909h-94v119h311v-119h-100v-401h449 v401h-95v119h310v-119h-99v-909h99v-119h-310v119h95v391h-449v-391h100v-119h-311v119zM360 883h27v37h-27v-37zM455 -6v-37h32v37h-32zM455 467h34v35h-34v-35zM918 365h34v34h-34v-34zM926 883h26v37h-26v-37zM1020 -6v-37h31v37h-31z" />
<glyph unicode="i" horiz-adv-x="833" d="M55 195h90v587h-90v439h619v-103h102v-438h-90v-588h90v-436h-618v102h-103v437zM96 154v-355h537v355h-90v669h90v357h-537v-357h90v-669h-90zM213 35h94v909h-94v119h311v-119h-100v-909h100v-119h-311v119zM356 883h27v37h-27v-37zM451 -6v-37h32v37h-32z" />
<glyph unicode="j" horiz-adv-x="1171" d="M41 -31v418h438v-102h6v497h-86v439h619v-103h102v-438h-92v-801l-217 -223h-453l-215 211v2zM82 -14l190 -187h420l193 199v825h92v357h-537v-357h86v-669h-88v192h-356v-360zM205 66v165h114v-104l91 -92h147l90 88v821h-92v119h309v-119h-98v-866l-158 -162h-252z M348 -20l25 -23h57l-35 37h-2l-45 45v-59zM698 883h27v37h-27v-37z" />
<glyph unicode="k" horiz-adv-x="1402" d="M59 195h93v587h-93v439h1182v-103h102v-438h-178l-133 -170l101 -315h108v-103h102v-436h-1181v102h-103v437zM100 154v-355h535v355h-90v41l137 170l74 -211h-94v-355h538v355h-166l-149 467l157 202h158v357h-538v-357h12l-129 -166v166h92v357h-537v-357h93v-669h-93z M219 35h90v909h-90v119h311v-119h-102v-588l465 588h-107v119h293v-119h-73l-230 -289l215 -620h92v-115l-313 -2v117h119l-182 532l-279 -348v-184h102v-119h-311v119zM362 883h25v37h-25v-37zM453 -6v-37h36v37h-36zM453 315l36 45v7l-36 -48v-4zM774 496l2 -7l8 13l-2 6z M930 915l2 5h-2v-5zM1014 -6l10 -33h16l-12 33h-14z" />
<glyph unicode="l" horiz-adv-x="1271" d="M59 195h93v587h-93v439h621v-103h102v-438h-94v-289h440v-102h103v-633h-1069v102h-103v437zM100 154v-355h987v551h-358v-196h-184v669h94v357h-539v-357h93v-669h-93zM219 35h96v909h-96v119h311v-119h-100v-909h414v196h119v-315h-744v119zM362 883h27v37h-27v-37z M459 -6v-37h33v37h-33z" />
<glyph unicode="m" horiz-adv-x="1544" d="M59 195h93v585h-93v441h516l54 -103h49l65 -127l119 230h520v-103h103v-440h-92v-586h92v-436h-623v102h-78v-102h-622v102h-103v437zM100 154v-355h541v355h-92v239l80 -178h178l86 158v-219h-92v-355h540v355h-92v667h92v359h-454l-168 -324l-168 324h-451v-359h93 v-667h-93zM219 35h94v909h-94v119h256l244 -475l242 475h266v-119h-99v-909h99v-119h-305v119h90v858l-264 -531h-60l-260 519v-846h98v-119h-307v119zM362 883h25v16l70 16l55 -112l45 10l-55 107h-140v-37zM457 -6v-37h28v37h-28zM651 627l92 -181l25 52l-25 49l-24 -49z M692 92h2l-2 6v-6zM1053 760l32 65h2v93l-34 -68v-90zM1155 -6v-37h31v37h-31z" />
<glyph unicode="n" horiz-adv-x="1507" d="M59 195h88v587h-88v439h523l49 -103h53l49 -102v205h617v-103h102v-438h-90v-1024h-442l-52 102h-51l-35 70v-172h-620v102h-103v437zM100 154v-355h539v355h-94v252l299 -607h375v1024h90v357h-535v-357h88v-280l-307 637h-455v-357h88v-669h-88zM217 35h94v909h-94v119 h264l500 -981v862h-92v119h311v-119h-100v-1032h-185l-487 954v-831h98v-121h-309v121zM360 883h27v2l70 16l57 -113l45 11l432 -846h60l-54 104l-45 -10l-444 873h-148v-37zM455 -6v-39h30v39h-30zM1032 883h27v37h-27v-37z" />
<glyph unicode="o" horiz-adv-x="1112" d="M55 -33v1045l213 209h457l332 -332v-1014l-221 -219h-465l-213 209v2zM96 -16l189 -185h432l196 195v981l-204 205h-424l-189 -185v-1011zM217 57v863l143 143h281l150 -152v-833l-162 -162h-269zM332 123l88 -90h164l92 90v723l-98 98h-160l-86 -82v-739zM360 -27 l17 -16h61l-32 35h-3l-43 43v-62zM451 150v677h104v-677h-104zM659 920l91 -91v66l-25 25h-66z" />
<glyph unicode="p" horiz-adv-x="1165" d="M59 193h91v589h-91v439h717l244 -242v-2l102 -100v-476l-260 -256h-174v-55h96v-434h-622v102h-103v435zM100 152v-353h541v353h-96v137h198l236 231v443l-219 217h-660v-357h90v-671h-90zM219 35h94v909h-94v115h479l162 -164v-311l-162 -162h-270v-387h100v-121h-309 v121zM362 883h25v32h-25v-32zM428 543h231l84 84v225l-90 92h-225v-401zM457 -6v-39h30v39h-30zM457 463h32v39h-32v-39zM545 645v178h82v-178h-82zM737 915l33 -32h2l47 -49v45l-37 36h-45z" />
<glyph unicode="q" horiz-adv-x="1249" d="M53 -33v1045l213 209h457l332 -332v-916l47 -36l-12 -15l114 -88l-246 -289l-159 111h-430l-213 209v2zM94 -16l189 -185h424l141 -98l194 229l-131 103v942l-204 205h-424l-189 -185v-1011zM215 57v863l143 143h281l149 -152v-831l-47 -47l160 -123l-65 -74l-164 119 l-43 -39h-271zM330 123l88 -90h164l92 90v723l-99 98h-159l-86 -82v-739zM358 -27l17 -16h61l-33 35h-2l-43 43v-62zM449 150v677h104v-677h-104zM657 920l91 -91v66l-25 25h-66zM756 -55l26 -19l13 13l-25 20z" />
<glyph unicode="r" horiz-adv-x="1394" d="M59 190h91v590h-91v441h768l101 -103h2l215 -219v-473l-84 -82l82 -151h104v-103h103v-434h-1188v102h-103v432zM100 150v-351h543v353h-96v137h98l74 -137h-41v-353h528v353h-135l-162 303l92 90v440l-190 195h-711v-359h90v-671h-90zM219 35h94v909h-94v115h522 l142 -139v-330l-107 -115l242 -440h72v-119h-295v119h104l-215 387h-256v-387h102v-119h-311v119zM362 883h25v32h-25v-32zM428 543h256l82 82v243l-78 76h-260v-401zM457 -6v-37h32v37h-32zM457 463h32v39h-32v-39zM547 645v178h98v-178h-98zM741 399l23 -39h27l-23 39h-27 zM774 915l33 -30v-2l35 -35v53l-15 14h-53zM1014 -6l20 -37h15v16l-13 21h-22z" />
<glyph unicode="s" horiz-adv-x="1161" d="M53 8v326h160l-158 160v489l244 238h473l219 -213v-4l103 -99v-325h-150l62 -60v-2l102 -100v-516l-254 -246h-444l-254 250v2zM94 25l230 -226h411l230 221v484l-199 194h-307v144h139v-119h352v268l-194 189h-441l-219 -213v-457l158 -160h344v-200h-139v143h-365v-268 zM217 70v98h117v-68l76 -80h237l74 70v326l-74 71h-323l-107 103v338l133 135h355l118 -117v-98h-121v43l-45 43h-247l-76 -76v-211l53 -53h324l131 -131v-397l-154 -154h-311zM360 10v-26l33 -31h27l-25 27h-4zM360 528h35v25h-24l-11 10v-35zM731 920l12 -13v-18h39v31 h-51zM743 451l19 -19v-6h4l35 -35v55l-4 5h-54z" />
<glyph unicode="t" horiz-adv-x="1460" d="M47 700v521h1264v-103h102v-520h-412v-506h91v-436h-621v102h-102v437h88v403h-307v102h-103zM88 741h365v82h45v-669h-88v-355h538v355h-90v669h47v-82h365v439h-1182v-439zM209 856v205h944v-205h-119v88h-297v-909h99v-119h-310v119h97v909h-299v-88h-115zM664 883h32 v35h-32v-35zM766 -6v-37h29v37h-29zM1075 897h37v21h-37v-21z" />
<glyph unicode="u" horiz-adv-x="1329" d="M51 782v439h1123v-103h102v-438h-88v-811l-215 -213h-514l-318 315v811h-90zM92 823h90v-835l191 -189h481l190 189v835h89v357h-506v-357h59v-671h-149v671h55v357h-500v-357zM209 944v119h280v-119h-71v-819l90 -86h213l82 86v819h-72v119h283v-119h-94v-881l-150 -147 h-317l-150 147v881h-94zM352 883h25v37h-25v-37zM446 -23l23 -20h61l-51 49v2l-33 33v-64zM874 883h5v37h-5v-37z" />
<glyph unicode="v" horiz-adv-x="1316" d="M43 766v455h1126v-103h103v-454h-109l-301 -1008h-309l-31 102h-71l-271 906h-35v102h-102zM84 807h96l301 -1008h248l301 1008h98v373h-507v-373h57l-72 -270l-74 270h54v373h-502v-373zM203 940v123h266v-123h-88l225 -721l221 721h-84v123h265v-123h-62l-303 -1026 h-76l-303 1026h-61zM346 879h10l-10 36v-36zM618 125l23 -72l21 72l-21 70zM887 885l10 35h-10v-35z" />
<glyph unicode="w" horiz-adv-x="1882" d="M47 782v439h594v-103h102v-43l48 146h192l33 -103h69l50 -153v256h596v-103h102v-438h-107l-337 -1024h-263l-32 102h-70l-68 211l-106 -313h-258l-35 102h-68l-303 922h-36v102h-103zM88 823h94l336 -1024h201l172 510l164 -510h202l338 1024h95v357h-514v-357h53 l-70 -278l-205 635h-135l-205 -633l-79 276h65v357h-512v-357zM188 944v119h287v-119h-104l243 -737l263 809h30l252 -809l248 737h-107v119h289v-119h-78l-340 -1034h-32l-246 786l-260 -786h-31l-338 1034h-76zM332 883h14l-12 37h-2v-37zM637 145l14 -47l13 35l-17 47z M944 672l17 -54l14 41l-19 56zM1180 141l12 -39l14 41l-12 39zM1444 883h4l12 37h-16v-37z" />
<glyph unicode="x" horiz-adv-x="1482" d="M59 193h189l213 296l-137 191h-162v102h-103v439h1262v-103h102v-438h-194l-211 -293l141 -194h162v-103h102v-434h-1261v102h-103v435zM100 152v-353h570v355h-45l65 100l62 -100h-45v-355h573v353h-170l-246 337l242 334h174v357h-573v-357h41l-58 -96l-59 96h39v357 h-570v-357h172l240 -334l-242 -337h-170zM215 35h86l326 450l-332 459h-80v119h311v-119h-106l270 -375l268 375h-108v119h309v-119h-78l-327 -457l325 -452h80v-119h-309v119h104l-264 371l-264 -371h100v-119h-311v119zM362 920l27 -37h25l-27 37h-25zM471 -43h14v18z M692 504l10 -15l13 15l-10 14zM768 367l10 -15l10 15l-10 14zM993 893l19 27h-19v-27zM1063 -6l27 -37h24l-27 37h-24z" />
<glyph unicode="y" horiz-adv-x="1368" d="M47 780v441h1172v-103h102v-440h-139l-226 -365v-202h88v-455h-620v102h-102v455h90v203l-162 262h-100v102h-103zM88 821h121l244 -395v-254h-91v-373h539v373h-88v254l244 395h121v359h-525v-359h23l-43 -100l-43 100h22v359h-524v-359zM205 944v119h270v-119h-96 l254 -416l254 416h-96v119h266v-119h-49l-314 -493v-416h86v-119h-295v119h84v416l-311 493h-53zM348 883h21l-21 35v-35zM643 469l10 -14v8l6 10l-6 10zM713 -6v-37h26v37h-26zM934 905l8 15h-8v-15z" />
<glyph unicode="z" horiz-adv-x="1398" d="M59 166l353 393h-250v103h-103v559h1178v-103h102v-411l-307 -342h205v-103h102v-606h-1177v102h-103v408zM100 152v-353h1096v525h-371v-172h-231l602 671v357h-1096v-478h373v121h232zM217 -84v188l756 832h-635v-117h-121v244h860v-195l-764 -833h648v172h118v-291 h-862zM360 -14v-29h21l35 37h-49zM971 874h55l10 11v35h-24z" />
<glyph unicode="{" horiz-adv-x="894" d="M45 455v174l96 96v637l203 205h389v-103h103v-438h-158v-553l-33 -35l33 -32v-435h55v-102h103v-440h-392l-303 305v624zM86 471l96 -96v-625l176 -178h334v358h-157v562l-50 49l50 51v577h157v357h-332l-178 -180v-637l-96 -97v-141zM203 514v53l80 82v635l125 125h178 v-121h-86l-74 -76v-602l-72 -71l72 -74v-576l74 -75h86v-125h-178l-127 127v618zM346 428l39 -41v62l-20 20l-19 -20v-21zM424 -168v-102h102l-39 41v2h-4z" />
<glyph unicode="|" horiz-adv-x="573" d="M57 -358v1855h355v-102h102v-1856h-354v103h-103zM98 -317h273v1773h-273v-1773zM188 -209v1561h93v-1561h-93z" />
<glyph unicode="}" horiz-adv-x="890" d="M57 -37h158v553l33 33l-33 33v434h-55v102h-103v443h389l101 -103h2l203 -205v-624l94 -94v-177l-94 -94v-639l-205 -205h-387v103h-103v440zM98 -78v-358h330l180 180v639l94 94v144l-94 94v624l-178 181h-332v-361h158v-561l49 -47l-49 -51v-578h-158zM203 -197h86 l73 76v600l72 74l-72 74v575l-73 76h-86v125h180l125 -129v-617l78 -79v-56l-80 -82v-633l-123 -126h-180v122zM362 1260l41 -41v-2h5l59 -62v102l-2 3h-103zM506 541l20 -23l19 21v22l-39 39v-59z" />
<glyph unicode="~" horiz-adv-x="786" d="M51 451v264l109 127h202v57h271v-102h102v-277l-102 -123h-203v-49h-276v103h-103zM92 492h195v49h225l80 96v221h-189v-57h-225l-86 -101v-208zM170 573v97l39 39h254v67h57v-98l-35 -37h-256v-68h-59z" />
<glyph unicode="&#xad;" d="M51 322v354h727v-103h103v-354h-727v103h-103zM92 362h645v273h-645v-273zM201 455v92h432v-92h-432z" />
<glyph unicode="&#x2000;" horiz-adv-x="949" />
<glyph unicode="&#x2001;" horiz-adv-x="1898" />
<glyph unicode="&#x2002;" horiz-adv-x="949" />
<glyph unicode="&#x2003;" horiz-adv-x="1898" />
<glyph unicode="&#x2004;" horiz-adv-x="632" />
<glyph unicode="&#x2005;" horiz-adv-x="474" />
<glyph unicode="&#x2006;" horiz-adv-x="316" />
<glyph unicode="&#x2007;" horiz-adv-x="316" />
<glyph unicode="&#x2008;" horiz-adv-x="237" />
<glyph unicode="&#x2009;" horiz-adv-x="379" />
<glyph unicode="&#x200a;" horiz-adv-x="105" />
<glyph unicode="&#x2010;" d="M51 322v354h727v-103h103v-354h-727v103h-103zM92 362h645v273h-645v-273zM201 455v92h432v-92h-432z" />
<glyph unicode="&#x2011;" d="M51 322v354h727v-103h103v-354h-727v103h-103zM92 362h645v273h-645v-273zM201 455v92h432v-92h-432z" />
<glyph unicode="&#x2012;" d="M51 322v354h727v-103h103v-354h-727v103h-103zM92 362h645v273h-645v-273zM201 455v92h432v-92h-432z" />
<glyph unicode="&#x2013;" horiz-adv-x="1125" d="M51 322v354h897v-103h127v-354h-897v103h-127zM102 362h795v273h-795v-273zM236 455v92h533v-92h-533z" />
<glyph unicode="&#x2014;" horiz-adv-x="2149" d="M51 322v354h1794v-103h254v-354h-1794v103h-254zM152 362h1592v273h-1592v-273zM421 455v92h1066v-92h-1066z" />
<glyph unicode="&#x202f;" horiz-adv-x="379" />
<glyph unicode="&#x205f;" horiz-adv-x="474" />
<glyph unicode="&#xe000;" horiz-adv-x="1218" d="M0 0v1219h1219v-1219h-1219z" />
</font>
</defs>
</svg>
